<svg xmlns="http://www.w3.org/2000/svg" width="256.756" height="58.141" viewBox="0 0 256.756 58.141">
  <g id="Group_7296" data-name="Group 7296" transform="translate(-164.524 -843.472)">
    <g id="Group_7295" data-name="Group 7295" transform="translate(164.524 843.472)">
      <g id="Group_7294" data-name="Group 7294" transform="translate(0)">
        <path id="Path_31495" data-name="Path 31495" d="M563.064,303.381h-7.657a3.372,3.372,0,0,0-3.263,3.582v8.017h2.251v-8.017c0-.787.359-1.327,1.013-1.327h7.657c.63,0,1.034.54,1.034,1.327v1.846h-8.017v2.251H564.1v3.92h2.255v-8.017a3.407,3.407,0,0,0-3.289-3.582" transform="translate(-376.843 -256.839)" fill="#fff"/>
        <path id="Path_31496" data-name="Path 31496" d="M601.928,314.98h2.252v-11.6h-2.252Zm6.349-5.788,5.743-5.811H610.89l-5.694,5.811,6.077,5.788H614.4Z" transform="translate(-408.815 -256.839)" fill="#fff"/>
        <path id="Path_31497" data-name="Path 31497" d="M657.03,305.635v-2.255H644.667v11.6H657.03v-2.255h-10.11v-7.09Zm-8.421,4.66h7.79v-2.25h-7.79Z" transform="translate(-436.262 -256.839)" fill="#fff"/>
        <path id="Path_31498" data-name="Path 31498" d="M700.531,312.725h-8.985v-7.09h8.782c.585,0,.988.425.988,1.236s-.4,1.174-.988,1.174h-7.094V310.3h7.3c.608,0,1.013.381,1.013,1.214,0,.811-.4,1.215-1.013,1.215m1.846-3.625a3,3,0,0,0,1.194-2.521,3.1,3.1,0,0,0-3.242-3.2H689.3v11.6h11.236a3.128,3.128,0,0,0,3.263-3.2,2.949,2.949,0,0,0-1.417-2.68" transform="translate(-464.922 -256.839)" fill="#fff"/>
        <path id="Path_31499" data-name="Path 31499" d="M445,237.841A2.653,2.653,0,0,1,443.5,233V224.71h-9.663v11.808H412.266V224.71h-9.657v21.76h43.667v-8.957a2.637,2.637,0,0,1-1.276.328M418.271,258.35h9.659v-9.463h-9.659Z" transform="translate(-280.811 -206.317)" fill="#fff"/>
        <path id="Path_31500" data-name="Path 31500" d="M529.57,215.5v-4.828h-9.855v13.2a2.615,2.615,0,0,1,1.008,1.034h39.17a2.655,2.655,0,1,1,.011,2.55H520.713a2.655,2.655,0,0,1-3.829.9v9.1h56.892V215.5Z" transform="translate(-354.199 -197.299)" fill="#fff"/>
        <rect id="Rectangle_3795" data-name="Rectangle 3795" width="9.659" height="40.011" transform="translate(222.578 0.169)" fill="#fff"/>
        <path id="Path_31501" data-name="Path 31501" d="M740.627,247.079V225.393H718.841l.026.2V246.96h9.459V238.7a2.658,2.658,0,1,1,2.525,0v20.02h9.8V253.28Z" transform="translate(-483.897 -206.755)" fill="#fff"/>
        <path id="Path_31502" data-name="Path 31502" d="M111.012,219.87l-8.551-13.529-.2-.323-10.5-16.49-4.656-7.317H79.08a2.655,2.655,0,1,1,0-2.525H85.5L81.434,173.3H62.2l10.327,16.225,3.267,5.131H84.14a2.657,2.657,0,0,1,4.995,1.263,2.6,2.6,0,0,1-.343,1.3l11.719,18.538a2.655,2.655,0,1,1-2.136,1.349L86.656,198.569a1.25,1.25,0,0,1-.179.013,2.658,2.658,0,0,1-2.338-1.4H77.4l21.344,33.538h6.683l5.554-8.307a2.661,2.661,0,0,1,.036-2.546" transform="translate(-62.197 -173.303)" fill="#fff"/>
        <path id="Path_31503" data-name="Path 31503" d="M208.947,271.817l-7.934,12.471H191.5l4.62-6.906a2.594,2.594,0,0,0,1.665-.4,2.656,2.656,0,0,0-1.6-4.9l-3.31-5.232,6.454-10.142Z" transform="translate(-145.233 -226.868)" fill="#fff"/>
        <path id="Path_31504" data-name="Path 31504" d="M253.847,225.7l3.563,5.6-3.837,6.03-6.986-11.551-.047-.079Z" transform="translate(-180.583 -206.95)" fill="#fff"/>
        <path id="Path_31505" data-name="Path 31505" d="M193.065,182.074l-4.092,5.526-9.1-14.3h40.169l-3.35,5a2.647,2.647,0,0,0-2.455,1.166,2.131,2.131,0,0,0-.13.213h-16.3a2.659,2.659,0,0,0-5,1.261,2.627,2.627,0,0,0,.253,1.126" transform="translate(-137.769 -173.303)" fill="#fff"/>
        <path id="Path_31506" data-name="Path 31506" d="M217.758,190.787a2.656,2.656,0,0,0,2.657,2.657.913.913,0,0,0,.13-.006l7.632,12.618-4.262,6.7-9.619-15.1-4.941-7.768,4.675-6.3a2.406,2.406,0,0,0,.375.03,2.658,2.658,0,0,0,2.337-1.4h16.293a2.657,2.657,0,0,0,4.688-2.5l4.289-6.4h7.007L238.7,189.523H222.752a2.656,2.656,0,0,0-4.994,1.264" transform="translate(-156.702 -173.302)" fill="#fff"/>
        <path id="Path_31507" data-name="Path 31507" d="M282.263,198.2a2.644,2.644,0,0,1-2.333,1.4c-.075,0-.151,0-.228-.011l-3.885,5.924a2.661,2.661,0,0,1-4.682,2.529h-7.987l-7.217,11.346L246.313,234.5l-7.775,12.212h8.353l17.217-27.057a2.657,2.657,0,1,1,2.127,1.357l-16.351,25.7h7.892L265.55,234.5l18.44-28.981,4.656-7.317Z" transform="translate(-175.444 -189.292)" fill="#fff"/>
        <path id="Path_31508" data-name="Path 31508" d="M341.376,173.3l-4.063,6.383h-7.992a2.655,2.655,0,0,0-4.671,2.527l-3.886,5.923a2.663,2.663,0,0,0-2.451,1.191c-.042.064-.083.13-.119.2h-6.379L322.139,173.3Z" transform="translate(-222.503 -173.303)" fill="#fff"/>
      </g>
    </g>
  </g>
</svg>
